HIERARCHY
ROOT Hips
{
  OFFSET 0 0.240689 0
  CHANNELS 6 Xposition Yposition Zposition Zrotation Xrotation Yrotation
  JOINT Bip01_Spine0
  {
    OFFSET 0 -24.7459 49.7988
    CHANNELS 6 Xposition Yposition Zposition Zrotation Xrotation Yrotation
    JOINT Bip01_Pelvis
    {
      OFFSET 0 0 0
      CHANNELS 6 Xposition Yposition Zposition Zrotation Xrotation Yrotation
      JOINT Bip01_Spine0_Tail
      {
        OFFSET -6.47486 -3.86022 0
        CHANNELS 6 Xposition Yposition Zposition Zrotation Xrotation Yrotation
        JOINT Bip01_Spine0_Tail1
        {
          OFFSET 10.3837 -0.00825882 0
          CHANNELS 6 Xposition Yposition Zposition Zrotation Xrotation Yrotation
          JOINT Bip01_Spine0_Tail2
          {
            OFFSET 10.3837 -0.00826263 0
            CHANNELS 6 Xposition Yposition Zposition Zrotation Xrotation Yrotation
            JOINT Bip01_Spine0_Tail3
            {
              OFFSET 10.3837 -0.00825882 0
              CHANNELS 6 Xposition Yposition Zposition Zrotation Xrotation Yrotation
              JOINT Bip01_Spine0_Tail4
              {
                OFFSET 10.3837 -0.00826263 0
                CHANNELS 6 Xposition Yposition Zposition Zrotation Xrotation Yrotation
                End Site
                {
                  OFFSET 0 0 0
                }
              }
            }
          }
        }
      }
      JOINT Bip01_R_Thigh
      {
        OFFSET 0 -1.52588e-005 -8.75617
        CHANNELS 6 Xposition Yposition Zposition Zrotation Xrotation Yrotation
        JOINT Bip01_R_Calf
        {
          OFFSET 19.7638 0 0
          CHANNELS 6 Xposition Yposition Zposition Zrotation Xrotation Yrotation
          JOINT Bip01_R_Foot
          {
            OFFSET 18.6534 0 0
            CHANNELS 6 Xposition Yposition Zposition Zrotation Xrotation Yrotation
            JOINT Bip01_R_Toe0
            {
              OFFSET 5.09145 13.9567 0
              CHANNELS 6 Xposition Yposition Zposition Zrotation Xrotation Yrotation
              JOINT Bip01_R_Toe01
              {
                OFFSET 4.28803 0 0
                CHANNELS 6 Xposition Yposition Zposition Zrotation Xrotation Yrotation
                JOINT Bip01_R_Toe02
                {
                  OFFSET 3.85801 0 0
                  CHANNELS 6 Xposition Yposition Zposition Zrotation Xrotation Yrotation
                  End Site
                  {
                    OFFSET 0 0 0
                  }
                }
              }
            }
          }
        }
      }
      JOINT Bip01_L_Thigh
      {
        OFFSET 0 1.52588e-005 8.75617
        CHANNELS 6 Xposition Yposition Zposition Zrotation Xrotation Yrotation
        JOINT Bip01_L_Calf
        {
          OFFSET 19.7638 0 0
          CHANNELS 6 Xposition Yposition Zposition Zrotation Xrotation Yrotation
          JOINT Bip01_L_Foot
          {
            OFFSET 18.6534 0 0
            CHANNELS 6 Xposition Yposition Zposition Zrotation Xrotation Yrotation
            JOINT Bip01_L_Toe0
            {
              OFFSET 5.09144 13.9567 0
              CHANNELS 6 Xposition Yposition Zposition Zrotation Xrotation Yrotation
              JOINT Bip01_L_Toe01
              {
                OFFSET 4.28802 0 0
                CHANNELS 6 Xposition Yposition Zposition Zrotation Xrotation Yrotation
                JOINT Bip01_L_Toe02
                {
                  OFFSET 3.85801 0 0
                  CHANNELS 6 Xposition Yposition Zposition Zrotation Xrotation Yrotation
                  End Site
                  {
                    OFFSET 0 0 0
                  }
                }
              }
            }
          }
        }
      }
      JOINT Bip01_Spine
      {
        OFFSET 9.14835 -0.00640869 -1.1e-005
        CHANNELS 6 Xposition Yposition Zposition Zrotation Xrotation Yrotation
        JOINT Bip01_Spine1
        {
          OFFSET 8.04366 -0.00638199 0
          CHANNELS 6 Xposition Yposition Zposition Zrotation Xrotation Yrotation
          JOINT Bip01_Spine2
          {
            OFFSET 8.04367 -0.00639343 0
            CHANNELS 6 Xposition Yposition Zposition Zrotation Xrotation Yrotation
            JOINT Bip01_Spine3
            {
              OFFSET 8.04304 -0.00831222 0
              CHANNELS 6 Xposition Yposition Zposition Zrotation Xrotation Yrotation
              JOINT Bip01_Neck
              {
                OFFSET 10.6685 1.06813 0
                CHANNELS 6 Xposition Yposition Zposition Zrotation Xrotation Yrotation
                JOINT Bip01_R_Clavicle
                {
                  OFFSET -3.21661 -4.89635 -9.04802
                  CHANNELS 6 Xposition Yposition Zposition Zrotation Xrotation Yrotation
                  JOINT Bip01_R_UpperArm
                  {
                    OFFSET 19.0492 0 0
                    CHANNELS 6 Xposition Yposition Zposition Zrotation Xrotation Yrotation
                    JOINT Bip01_R_Forearm
                    {
                      OFFSET 10.3706 0 0
                      CHANNELS 6 Xposition Yposition Zposition Zrotation Xrotation Yrotation
                      JOINT Bip01_R_Hand
                      {
                        OFFSET 22.8632 0 0
                        CHANNELS 6 Xposition Yposition Zposition Zrotation Xrotation Yrotation
                        JOINT Bip01_R_Finger0
                        {
                          OFFSET 6.48259 0.103651 0.504496
                          CHANNELS 6 Xposition Yposition Zposition Zrotation Xrotation Yrotation
                          JOINT Bip01_R_Finger01
                          {
                            OFFSET 3.66847 0 0
                            CHANNELS 6 Xposition Yposition Zposition Zrotation Xrotation Yrotation
                            End Site
                            {
                              OFFSET 0 0 0
                            }
                          }
                        }
                      }
                    }
                  }
                }
                JOINT Bip01_L_Clavicle
                {
                  OFFSET -3.21661 -4.89641 9.04797
                  CHANNELS 6 Xposition Yposition Zposition Zrotation Xrotation Yrotation
                  JOINT Bip01_L_UpperArm
                  {
                    OFFSET 19.0492 0 0
                    CHANNELS 6 Xposition Yposition Zposition Zrotation Xrotation Yrotation
                    JOINT Bip01_L_Forearm
                    {
                      OFFSET 10.3706 0 0
                      CHANNELS 6 Xposition Yposition Zposition Zrotation Xrotation Yrotation
                      JOINT Bip01_L_Hand
                      {
                        OFFSET 22.8631 0 0
                        CHANNELS 6 Xposition Yposition Zposition Zrotation Xrotation Yrotation
                        JOINT Bip01_L_Finger0
                        {
                          OFFSET 6.48257 0.103655 -0.504492
                          CHANNELS 6 Xposition Yposition Zposition Zrotation Xrotation Yrotation
                          JOINT Bip01_L_Finger01
                          {
                            OFFSET 3.66844 0 0
                            CHANNELS 6 Xposition Yposition Zposition Zrotation Xrotation Yrotation
                            End Site
                            {
                              OFFSET 0 0 0
                            }
                          }
                        }
                      }
                    }
                  }
                }
                JOINT Bip01_Neck1
                {
                  OFFSET 7.52459 -0.00656509 0
                  CHANNELS 6 Xposition Yposition Zposition Zrotation Xrotation Yrotation
                  JOINT Bip01_Neck2
                  {
                    OFFSET 8.4783 -0.00588226 0
                    CHANNELS 6 Xposition Yposition Zposition Zrotation Xrotation Yrotation
                    JOINT Bip01_Head
                    {
                      OFFSET 8.41606 0 0
                      CHANNELS 6 Xposition Yposition Zposition Zrotation Xrotation Yrotation
                      JOINT EyesBlue
                      {
                        OFFSET 0 0 0
                        CHANNELS 6 Xposition Yposition Zposition Zrotation Xrotation Yrotation
                        JOINT EyesBlue_2
                        {
                          OFFSET 0 -0.500007 0
                          CHANNELS 6 Xposition Yposition Zposition Zrotation Xrotation Yrotation
                          End Site
                          {
                            OFFSET 0 0 0
                          }
                        }
                      }
                      JOINT Bip01_Head2_Eyeleds
                      {
                        OFFSET 6.52751 7.61746 2.2e-005
                        CHANNELS 6 Xposition Yposition Zposition Zrotation Xrotation Yrotation
                        End Site
                        {
                          OFFSET 0 0 0
                        }
                      }
                      JOINT Bip01_Head_Muzzle
                      {
                        OFFSET 2.88628 13.9448 3.88994
                        CHANNELS 6 Xposition Yposition Zposition Zrotation Xrotation Yrotation
                        End Site
                        {
                          OFFSET 0 0 0
                        }
                      }
                      JOINT Bip01_Head1_Jaw
                      {
                        OFFSET 0.271065 1.32405 0
                        CHANNELS 6 Xposition Yposition Zposition Zrotation Xrotation Yrotation
                        JOINT _Bip01_Head11_TungeControler
                        {
                          OFFSET 4.61616 5.82872 0
                          CHANNELS 6 Xposition Yposition Zposition Zrotation Xrotation Yrotation
                          JOINT _Bip01_Ponytail3_tunge
                          {
                            OFFSET 5.17785 2.98805 0
                            CHANNELS 6 Xposition Yposition Zposition Zrotation Xrotation Yrotation
                            JOINT Bip01_Ponytail31
                            {
                              OFFSET 5.57569 0 0
                              CHANNELS 6 Xposition Yposition Zposition Zrotation Xrotation Yrotation
                              JOINT Bip01_Ponytail32
                              {
                                OFFSET 2.93165 0 0
                                CHANNELS 6 Xposition Yposition Zposition Zrotation Xrotation Yrotation
                                JOINT Bip01_Ponytail3Nub
                                {
                                  OFFSET 3.30155 0 0
                                  CHANNELS 6 Xposition Yposition Zposition Zrotation Xrotation Yrotation
                                  End Site
                                  {
                                    OFFSET 0 0 0
                                  }
                                }
                              }
                            }
                          }
                        }
                        JOINT Bip01_Head_JawNub
                        {
                          OFFSET 15.5776 -0.000389099 0
                          CHANNELS 6 Xposition Yposition Zposition Zrotation Xrotation Yrotation
                          End Site
                          {
                            OFFSET 0 0 0
                          }
                        }
                      }
                      JOINT Bip01_Ponytail2
                      {
                        OFFSET 9.40334 1.03973 -6.51764
                        CHANNELS 6 Xposition Yposition Zposition Zrotation Xrotation Yrotation
                        JOINT Bip01_Ponytail21
                        {
                          OFFSET 2.77018 -0.00640106 1.33514e-005
                          CHANNELS 6 Xposition Yposition Zposition Zrotation Xrotation Yrotation
                          End Site
                          {
                            OFFSET 0 0 0
                          }
                        }
                      }
                      JOINT Bip01_Ponytail1
                      {
                        OFFSET 9.40368 1.03969 6.51768
                        CHANNELS 6 Xposition Yposition Zposition Zrotation Xrotation Yrotation
                        JOINT Bip01_Ponytail11
                        {
                          OFFSET 2.77018 -0.00640487 0
                          CHANNELS 6 Xposition Yposition Zposition Zrotation Xrotation Yrotation
                          End Site
                          {
                            OFFSET 0 0 0
                          }
                        }
                      }
                    }
                  }
                }
              }
            }
          }
        }
      }
    }
  }
}
MOTION
Frames:	4
Frame Time:	0.0333333
0 0 21.2911 -0 -90 -0 0.960504 -28.7007 47.1429 89.8203 -1.87129 84.5984 0 0 0 -89.9996 -0.000320203 -78.5409 -6.3463 -3.85972 -1.28654 144.686 -6.72028 -2.68689 10.3821 -0.008033 5.00002e-005 -7.93557 -0.0564018 5.60098 10.3832 -0.008121 0.000123 -0.636554 0.244103 5.26313 10.3867 -0.007354 0.000104 25.6416 0.0900147 8.88746 10.3865 -0.00745 -0.000469 24.4677 4.16811 3.53532 8.79676e-006 -1.06211e-005 -8.75617 -86.6294 9.57657 -173.388 19.7638 -3e-006 1e-006 -67.4693 0.000559215 0.00282087 18.6534 0 -2.66454e-015 -32.7465 4.18101 3.76899 5.09143 13.9567 -1.58663e-007 111.093 1.10494 -4.84135 4.288 0 1.77636e-015 67.7524 0.00137488 0.000280046 3.85799 -3.55271e-015 -1.77636e-015 -39.4634 0.00111281 0.00229935 -1.47968e-005 6.62114e-006 8.75617 -128.019 10.7253 -175.743 19.7638 -3.55271e-015 0 -79.258 1.31453e-005 0.00014284 18.6534 3e-006 1e-006 -10.4583 -7.10597 -1.37354 5.09143 13.9567 -1.22711e-006 98.876 -1.02088 4.88589 4.288 7.10542e-015 3.55271e-015 49.6932 0.00224791 0.000861491 3.85799 -9.76996e-015 -1.77636e-015 -44.4603 0.000508084 0.00120018 8.96616 -0.00639708 1.81758 2.54255 -0.130161 -2.94538 8.04383 -0.006286 9.89998e-005 2.44235 -0.348185 -8.00048 8.04375 -0.006286 -1.90023e-005 1.27571 0.170833 -4.50005 8.04393 -0.008232 0.000125 2.32956 -0.688822 -5.4624 10.6688 1.06806 4.50369e-005 -10.4616 -0.40853 4.44651 -2.75854 -4.66996 -9.31514 -128.661 -83.4045 157.594 19.0492 2.18492e-013 7e-006 78.652 -6.12912 -109.363 10.3706 0 -3.55272e-015 -79.2885 7.98698e-005 0.000891946 22.8631 -3e-006 1.19904e-013 -17.6298 14.1589 6.54153 6.48256 0.103655 0.504495 -60.4713 -5.13953 -14.6415 3.66844 2e-006 -8.08243e-013 17.2996 0.000957297 0.001074 -4.1245 -4.79426 8.7285 144.573 83.9799 -77.9816 19.0492 -1e-006 -3e-006 76.178 -2.47134 89.838 10.3706 3.55271e-015 -5.32907e-015 -104.189 -0.000177327 0.00133507 22.8631 1e-006 -2.22045e-014 18.7049 -20.6371 -12.2133 6.48256 0.103649 -0.504496 54.9906 11.213 -10.7717 3.66844 -1e-006 7.81597e-014 25.7074 9.19008e-006 -2.51734e-006 7.52728 -0.006649 -0.00033 9.74393 2.81241 10.149 8.47684 -0.006462 0.000192002 15.3919 -1.65076 -4.82131 8.41605 3e-006 2.13163e-014 -92.0475 -0.746958 -2.58308 -3e-006 3e-006 -3e-006 -23.1098 1.37701e-015 90 -3.16452e-007 -0.500004 1.42907e-006 -109.29 90 -160.71 0 0 0 -101.552 -7.01671e-015 -180 3.60363 13.739 3.88994 -22.989 1.37021e-015 90 0 0 0 -82.8364 -7.01671e-015 -180 0 0 0 -114.791 -2.15528e-006 -1.97196e-005 0 0 0 130.241 -1.9618e-005 3.37186e-006 0 0 0 -1.16772 -1.35304e-007 -3.99162e-009 0 0 0 -23.6485 -2.73181e-007 -2.42771e-008 0 0 0 -26.1943 -3.36313e-008 9.61146e-008 15.5776 -0.0004 -7e-006 5.81911e-034 -2.23633e-016 1.49089e-016 9.40381 1.03965 -6.51623 -5.81682 -20.0456 20.1752 2.76858 -0.006114 -0.001365 -12.2016 12.3265 -1.9868 9.40415 1.03961 6.51626 -5.81696 20.0456 -20.1751 2.76858 -0.006116 0.001365 -12.2016 -12.3265 1.98687 
0 0 21.2911 -0 -90 -0 0.899274 -28.7007 47.1792 89.8489 -1.62814 84.9739 0 0 0 -89.9996 -0.000324488 -78.7696 -6.35122 -3.85972 -1.26107 143.986 -6.71652 -3.61994 10.3821 -0.008033 5.00002e-005 -8.50877 -0.150862 4.08874 10.3832 -0.008121 0.000123 0.647074 0.610218 4.06882 10.3867 -0.007354 0.000104 26.6654 0.0726487 8.58491 10.3865 -0.00745 -0.000469 25.7344 3.87613 3.40272 8.8006e-006 -1.0632e-005 -8.75617 -89.7042 8.97762 -173.027 19.7638 -3e-006 1e-006 -69.6927 0.000500918 0.00282134 18.6534 7.10543e-015 1.77636e-015 -31.3117 4.4571 3.594 5.09143 13.9567 -1.31554e-007 111.57 1.12178 -4.79367 4.288 0 3.55271e-015 65.8798 0.00136691 0.000324417 3.85799 5.32907e-015 0 -36.7609 0.00121858 0.00224319 -1.48006e-005 6.63195e-006 8.75617 -129.64 10.5653 -176.016 19.7638 -3.55271e-015 3.10862e-015 -79.3661 1.30674e-005 0.000142801 18.6534 3e-006 1e-006 -7.88033 -7.33452 -0.989314 5.09143 13.9567 -1.2366e-006 96.2379 -1.26737 4.80838 4.288 -1.06581e-014 5.32907e-015 45.7409 0.00219334 0.00101324 3.85799 7.10542e-015 -3.55271e-015 -43.3135 0.000523912 0.00118291 8.97317 -0.00639707 1.78165 2.54282 -0.125205 -2.83375 8.04383 -0.006286 9.89998e-005 2.30435 -0.324251 -7.89123 8.04375 -0.006286 -1.90001e-005 1.73577 0.136493 -4.43844 8.04393 -0.008232 0.000125 1.74156 -0.6249 -5.39387 10.6688 1.06806 4.5033e-005 -10.4619 -0.394101 4.33182 -2.80164 -4.67519 -9.29951 -130.371 -83.5854 156.891 19.0492 2.06057e-013 7e-006 79.3136 -5.97792 -109.326 10.3706 7.10543e-015 8.88179e-016 -81.2234 6.54621e-005 0.000892472 22.8631 -3e-006 1.19016e-013 -17.2181 13.6095 6.81811 6.48256 0.103655 0.504495 -59.9033 -5.28688 -14.5899 3.66844 2e-006 -9.21042e-013 19.1911 0.000989065 0.00104329 -4.08445 -4.78897 8.75014 146.494 84.1551 -78.5678 19.0492 -1e-006 -3e-006 75.7644 7.98316 90.7112 10.3706 0 -3.55271e-015 -104.236 -0.00017812 0.00133395 22.8631 1e-006 -2.13163e-014 16.3029 -19.4877 -10.1749 6.48256 0.103649 -0.504496 53.8651 11.4181 -10.5474 3.66844 -1e-006 7.28307e-014 25.9971 1.04895e-005 -2.69139e-006 7.52728 -0.006649 -0.00033 9.74159 2.8113 10.1453 8.47684 -0.006462 0.000192002 15.3925 -1.65064 -4.82072 8.41605 3e-006 2.40918e-014 -91.8051 -0.920356 -2.60239 -3e-006 3e-006 -3e-006 -23.1098 1.37701e-015 90 -3.1652e-007 -0.500004 1.43005e-006 -108.529 90 -161.471 0 0 0 -101.852 -1.52588e-005 -180 3.5857 13.7441 3.88994 -22.989 1.37021e-015 90 0 0 0 -82.8989 -7.01671e-015 -180 0 0 0 -114.928 -2.01886e-006 -1.98429e-005 0 0 0 130.328 -1.89592e-005 3.42795e-006 0 0 0 -1.09276 -2.29193e-007 -1.57827e-008 0 0 0 -23.4986 -6.96766e-007 -2.3853e-007 0 0 0 -26.1943 -9.2693e-008 6.53943e-008 15.5776 -0.0004 -7e-006 -3.18055e-015 1.73937e-016 -9.93923e-017 9.40381 1.03965 -6.51623 -5.8919 -20.1248 19.9565 2.76858 -0.006114 -0.001365 -12.2016 12.3265 -1.9868 9.40415 1.03961 6.51626 -5.892 20.1248 -19.9565 2.76858 -0.006116 0.001365 -12.2016 -12.3265 1.98687 
0 0 21.2911 -0 -90 -0 0.818619 -28.7007 47.3203 89.8921 -1.25088 85.7236 0 0 0 -89.9996 -0.000309658 -79.3608 -6.36363 -3.85972 -1.19536 142.811 -6.51755 -4.68236 10.3821 -0.008033 5.00002e-005 -9.45623 -0.245747 2.17886 10.3832 -0.008121 0.000123 3.17226 1.00093 2.64499 10.3867 -0.007354 0.000104 28.5086 -0.152881 8.48818 10.3865 -0.00745 -0.000469 27.3673 2.70091 3.60842 8.8106e-006 -1.06555e-005 -8.75617 -92.9741 8.07774 -172.839 19.7638 -3e-006 1e-006 -71.3253 0.000458566 0.00282152 18.6534 0 7.10543e-015 -30.2392 4.70191 3.45182 5.09143 13.9567 -8.64757e-008 113.211 1.14399 -4.75081 4.288 1.42108e-014 0 62.7916 0.00135001 0.000396799 3.85799 0 -3.55271e-015 -32.4689 0.00138112 0.00214436 -1.48106e-005 6.65545e-006 8.75617 -131.221 10.1634 -176.573 19.7638 -1.42109e-014 3.55271e-015 -79.4031 1.30815e-005 0.000142763 18.6534 3e-006 1e-006 -5.2441 -7.56233 -0.544306 5.09143 13.9567 -1.24439e-006 92.1599 -1.64471 4.67075 4.288 1.06581e-014 3.55271e-015 39.5764 0.00209987 0.00123978 3.85799 -1.55431e-014 -1.77636e-015 -41.511 0.000538946 0.00114766 8.99089 -0.00639707 1.68885 2.54351 -0.11641 -2.63546 8.04383 -0.006286 9.89999e-005 1.96896 -0.264763 -7.52343 8.04375 -0.006286 -1.89941e-005 2.2396 0.105429 -4.23164 8.04393 -0.008232 0.000125 0.927735 -0.524353 -5.14912 10.6688 1.06806 4.50254e-005 -10.4627 -0.352385 4.0003 -2.87671 -4.68427 -9.27186 -133.578 -83.889 154.684 19.0492 2.0961e-013 7e-006 80.0268 -5.81715 -109.028 10.3706 0 8.88179e-016 -83.1781 5.13282e-005 0.000893064 22.8631 -3e-006 1.2168e-013 -16.6997 12.9733 7.05256 6.48256 0.103655 0.504495 -59.3377 -5.43271 -14.5374 3.66844 2e-006 -1.02052e-012 21.0802 0.00102037 0.00101142 -4.01438 -4.77976 8.78751 150.114 84.4459 -81.0363 19.0492 -1e-006 -3e-006 74.6034 21.626 93.9717 10.3706 0 -3.55271e-015 -104.537 -0.00015423 0.00132474 22.8631 1e-006 -3.55271e-014 13.486 -17.7329 -7.17196 6.48256 0.103649 -0.504496 50.9011 11.9377 -9.94092 3.66844 -1e-006 7.01661e-014 26.5503 1.36957e-005 -2.70339e-006 7.52728 -0.006649 -0.00033 9.7366 2.80887 10.137 8.47684 -0.006462 0.000192002 15.4146 -1.65487 -4.82858 8.41605 3e-006 2.86438e-014 -91.1873 -1.01317 -2.64359 -3e-006 3e-006 -3e-006 -23.1098 1.37701e-015 90 -3.1675e-007 -0.500004 1.43263e-006 -106.513 90 -163.487 0 0 0 -102.152 -1.52588e-005 -180 3.56777 13.7492 3.88994 -22.989 1.37021e-015 90 0 0 0 -82.9613 7.01671e-015 -180 0 0 0 -115.066 -1.99484e-006 -1.98484e-005 0 0 0 130.416 -1.89336e-005 3.43979e-006 0 0 0 -1.01779 -2.08139e-007 -1.53381e-008 0 0 0 -23.3486 -7.64089e-007 -2.59679e-007 0 0 0 -26.1943 -1.16339e-007 7.17419e-008 15.5776 -0.0004 -7e-006 -6.36111e-015 4.72114e-016 -9.93923e-017 9.40381 1.03965 -6.51623 -5.968 -20.2043 19.7357 2.76858 -0.006114 -0.001365 -12.2016 12.3265 -1.9868 9.40415 1.03961 6.51626 -5.96814 20.2043 -19.7355 2.76858 -0.006116 0.001365 -12.2016 -12.3265 1.98686 
0 0 21.2911 -0 -90 -0 0.721063 -28.7007 47.5339 89.9376 -0.815142 86.7392 0 0 0 -89.9996 -0.000314206 -80.213 -6.38066 -3.85972 -1.10058 141.311 -6.14988 -5.74964 10.3821 -0.008033 5.00002e-005 -10.6623 -0.311416 0.00807033 10.3832 -0.008121 0.000123 6.57503 1.34282 1.05216 10.3867 -0.007354 0.000104 30.9249 -0.523772 8.51223 10.3865 -0.00745 -0.000469 29.2443 0.933148 4.07183 8.82515e-006 -1.06982e-005 -8.75617 -96.33 6.96307 -172.827 19.7638 -3e-006 1e-006 -72.475 0.000429663 0.00282136 18.6534 7.10543e-015 -8.88179e-016 -29.4082 4.92202 3.30776 5.09143 13.9567 2.03337e-008 115.302 1.17147 -4.71261 4.288 -7.10542e-015 -3.55271e-015 59.2569 0.00132594 0.000478217 3.85799 3.55271e-015 0 -27.5711 0.00155696 0.0020173 -1.48251e-005 6.69816e-006 8.75617 -132.717 9.59476 -177.319 19.7638 1.42109e-014 -4.44089e-015 -79.5778 1.30798e-005 0.000142702 18.6534 3e-006 1e-006 -2.41254 -7.74113 -0.0643838 5.09143 13.9567 -1.24917e-006 87.5688 -2.05888 4.48689 4.288 7.10542e-015 -3.55271e-015 32.6205 0.00192025 0.00147808 3.85799 1.77636e-015 1.77636e-015 -39.4695 0.00059001 0.00113724 9.01513 -0.00639705 1.55503 2.54485 -0.104551 -2.36776 8.04383 -0.006286 9.89999e-005 1.48192 -0.185985 -6.97601 8.04375 -0.006286 -1.89942e-005 2.70345 0.0856761 -3.92321 8.04393 -0.008232 0.000125 0.0140197 -0.407605 -4.78008 10.6688 1.06806 4.50143e-005 -10.4636 -0.285688 3.4703 -2.98014 -4.69679 -9.23284 -138.529 -84.2746 150.731 19.0492 1.66978e-013 7e-006 80.8167 -5.36614 -108.595 10.3706 7.10543e-015 -1.33227e-015 -84.8275 3.96703e-005 0.000893944 22.8631 -3e-006 9.76997e-014 -16.1066 12.2303 7.23379 6.48256 0.103655 0.504495 -58.7602 -5.58058 -14.4825 3.66844 2e-006 -1.01164e-012 22.9689 0.00105329 0.000977429 -3.91712 -4.76694 8.83823 155.733 84.8089 -85.5037 19.0492 -1e-006 -3e-006 72.2861 34.6942 98.5774 10.3706 1.42109e-014 -6.21725e-015 -103.178 -0.00014872 0.00132137 22.8631 1e-006 -4.70735e-014 10.1364 -15.8344 -3.71916 6.48256 0.103649 -0.504496 45.7585 12.7767 -8.84757 3.66844 -1e-006 7.28307e-014 27.1696 2.09735e-005 -2.53555e-006 7.52728 -0.006649 -0.00033 9.72829 2.80447 10.1213 8.47684 -0.006462 0.000192002 15.4499 -1.66163 -4.84112 8.41605 3e-006 2.75335e-014 -90.2835 -1.0887 -2.67434 -3e-006 3e-006 -3e-006 -23.1098 1.37701e-015 90 -3.17072e-007 -0.500004 1.43642e-006 -103.469 90 -166.531 0 0 0 -102.452 -1.52588e-005 -180 3.54984 13.7544 3.88994 -22.989 1.37021e-015 90 0 0 0 -83.0238 7.01671e-015 -180 0 0 0 -115.203 -2.04689e-006 -1.97791e-005 0 0 0 130.503 -1.92476e-005 3.42052e-006 0 0 0 -0.942831 -1.46809e-007 -9.65055e-009 0 0 0 -23.1987 -6.36178e-007 -1.73168e-007 0 0 0 -26.1943 -1.16908e-007 1.02462e-007 15.5776 -0.0004 -7e-006 3.18055e-015 1.49089e-016 1.98785e-016 9.40381 1.03965 -6.51623 -5.81113 -20.0396 20.1917 2.76858 -0.006114 -0.001365 -12.2016 12.3265 -1.9868 9.40415 1.03961 6.51626 -5.81127 20.0396 -20.1916 2.76858 -0.006116 0.001365 -12.2016 -12.3265 1.98686 
